<mxfile host="app.diagrams.net" agent="Mozilla/5.0 (Windows NT 10.0; Win64; x64; rv:135.0) Gecko/20100101 Firefox/135.0" version="26.0.16">
  <diagram name="Page-1" id="hksbCuW23tJVjGmWREl6">
    <mxGraphModel dx="3263" dy="2533" grid="1" gridSize="10" guides="1" tooltips="1" connect="1" arrows="1" fold="1" page="1" pageScale="1" pageWidth="850" pageHeight="1100" math="0" shadow="0">
      <root>
        <mxCell id="0" />
        <mxCell id="1" parent="0" />
        <mxCell id="W9ihRem-RopsjmL4uKQ5-1" value="" style="edgeStyle=none;shape=link;rounded=0;orthogonalLoop=1;jettySize=auto;html=1;strokeColor=default;align=center;verticalAlign=middle;fontFamily=Helvetica;fontSize=11;fontColor=default;labelBackgroundColor=default;startFill=0;endArrow=none;" edge="1" parent="1" source="W9ihRem-RopsjmL4uKQ5-8" target="W9ihRem-RopsjmL4uKQ5-91">
          <mxGeometry relative="1" as="geometry" />
        </mxCell>
        <mxCell id="W9ihRem-RopsjmL4uKQ5-2" style="edgeStyle=none;shape=link;rounded=0;orthogonalLoop=1;jettySize=auto;html=1;strokeColor=default;align=center;verticalAlign=middle;fontFamily=Helvetica;fontSize=11;fontColor=default;labelBackgroundColor=default;startFill=0;endArrow=none;entryX=1;entryY=0.5;entryDx=0;entryDy=0;" edge="1" parent="1" source="W9ihRem-RopsjmL4uKQ5-8" target="W9ihRem-RopsjmL4uKQ5-92">
          <mxGeometry relative="1" as="geometry">
            <mxPoint x="190" y="830" as="targetPoint" />
          </mxGeometry>
        </mxCell>
        <mxCell id="W9ihRem-RopsjmL4uKQ5-3" value="" style="edgeStyle=none;shape=connector;rounded=0;orthogonalLoop=1;jettySize=auto;html=1;strokeColor=default;align=center;verticalAlign=middle;fontFamily=Helvetica;fontSize=11;fontColor=default;labelBackgroundColor=default;startFill=0;endArrow=none;" edge="1" parent="1" source="W9ihRem-RopsjmL4uKQ5-8" target="W9ihRem-RopsjmL4uKQ5-120">
          <mxGeometry relative="1" as="geometry" />
        </mxCell>
        <mxCell id="W9ihRem-RopsjmL4uKQ5-4" value="" style="edgeStyle=none;shape=connector;rounded=0;orthogonalLoop=1;jettySize=auto;html=1;strokeColor=default;align=center;verticalAlign=middle;fontFamily=Helvetica;fontSize=11;fontColor=default;labelBackgroundColor=default;startFill=0;endArrow=none;" edge="1" parent="1" source="W9ihRem-RopsjmL4uKQ5-8" target="W9ihRem-RopsjmL4uKQ5-122">
          <mxGeometry relative="1" as="geometry" />
        </mxCell>
        <mxCell id="W9ihRem-RopsjmL4uKQ5-5" value="" style="edgeStyle=none;shape=connector;rounded=0;orthogonalLoop=1;jettySize=auto;html=1;strokeColor=default;align=center;verticalAlign=middle;fontFamily=Helvetica;fontSize=11;fontColor=default;labelBackgroundColor=default;startFill=0;endArrow=none;" edge="1" parent="1" source="W9ihRem-RopsjmL4uKQ5-8" target="W9ihRem-RopsjmL4uKQ5-120">
          <mxGeometry relative="1" as="geometry" />
        </mxCell>
        <mxCell id="W9ihRem-RopsjmL4uKQ5-6" value="" style="edgeStyle=none;shape=connector;rounded=0;orthogonalLoop=1;jettySize=auto;html=1;strokeColor=default;align=center;verticalAlign=middle;fontFamily=Helvetica;fontSize=11;fontColor=default;labelBackgroundColor=default;startFill=0;endArrow=none;" edge="1" parent="1" source="W9ihRem-RopsjmL4uKQ5-8" target="W9ihRem-RopsjmL4uKQ5-120">
          <mxGeometry relative="1" as="geometry" />
        </mxCell>
        <mxCell id="W9ihRem-RopsjmL4uKQ5-7" value="" style="edgeStyle=none;shape=connector;rounded=0;orthogonalLoop=1;jettySize=auto;html=1;strokeColor=default;align=center;verticalAlign=middle;fontFamily=Helvetica;fontSize=11;fontColor=default;labelBackgroundColor=default;startFill=0;endArrow=none;" edge="1" parent="1" source="W9ihRem-RopsjmL4uKQ5-8" target="W9ihRem-RopsjmL4uKQ5-124">
          <mxGeometry relative="1" as="geometry" />
        </mxCell>
        <mxCell id="W9ihRem-RopsjmL4uKQ5-8" value="" style="rounded=0;whiteSpace=wrap;html=1;fontFamily=Helvetica;fontSize=11;fontColor=default;labelBackgroundColor=default;" vertex="1" parent="1">
          <mxGeometry x="630" y="760" width="230" height="110" as="geometry" />
        </mxCell>
        <mxCell id="W9ihRem-RopsjmL4uKQ5-9" value="" style="edgeStyle=none;shape=connector;rounded=0;orthogonalLoop=1;jettySize=auto;html=1;strokeColor=default;align=center;verticalAlign=middle;fontFamily=Helvetica;fontSize=11;fontColor=default;labelBackgroundColor=default;startFill=0;endArrow=none;" edge="1" parent="1" source="W9ihRem-RopsjmL4uKQ5-13" target="W9ihRem-RopsjmL4uKQ5-92">
          <mxGeometry relative="1" as="geometry" />
        </mxCell>
        <mxCell id="W9ihRem-RopsjmL4uKQ5-10" value="" style="edgeStyle=none;shape=connector;rounded=0;orthogonalLoop=1;jettySize=auto;html=1;strokeColor=default;align=center;verticalAlign=middle;fontFamily=Helvetica;fontSize=11;fontColor=default;labelBackgroundColor=default;startFill=0;endArrow=none;" edge="1" parent="1" source="W9ihRem-RopsjmL4uKQ5-13" target="W9ihRem-RopsjmL4uKQ5-146">
          <mxGeometry relative="1" as="geometry" />
        </mxCell>
        <mxCell id="W9ihRem-RopsjmL4uKQ5-11" value="" style="edgeStyle=none;shape=connector;rounded=0;orthogonalLoop=1;jettySize=auto;html=1;strokeColor=default;align=center;verticalAlign=middle;fontFamily=Helvetica;fontSize=11;fontColor=default;labelBackgroundColor=default;startFill=0;endArrow=none;" edge="1" parent="1" source="W9ihRem-RopsjmL4uKQ5-13" target="W9ihRem-RopsjmL4uKQ5-147">
          <mxGeometry relative="1" as="geometry" />
        </mxCell>
        <mxCell id="W9ihRem-RopsjmL4uKQ5-12" value="" style="edgeStyle=none;shape=connector;rounded=0;orthogonalLoop=1;jettySize=auto;html=1;strokeColor=default;align=center;verticalAlign=middle;fontFamily=Helvetica;fontSize=11;fontColor=default;labelBackgroundColor=default;startFill=0;endArrow=none;exitX=0;exitY=0.25;exitDx=0;exitDy=0;" edge="1" parent="1" source="W9ihRem-RopsjmL4uKQ5-13" target="W9ihRem-RopsjmL4uKQ5-148">
          <mxGeometry relative="1" as="geometry">
            <mxPoint x="-160" y="530.1816461611311" as="sourcePoint" />
          </mxGeometry>
        </mxCell>
        <mxCell id="W9ihRem-RopsjmL4uKQ5-13" value="" style="rounded=0;whiteSpace=wrap;html=1;fontFamily=Helvetica;fontSize=11;fontColor=default;labelBackgroundColor=default;" vertex="1" parent="1">
          <mxGeometry x="-160" y="555" width="180" height="90" as="geometry" />
        </mxCell>
        <mxCell id="W9ihRem-RopsjmL4uKQ5-14" value="" style="shape=connector;rounded=0;orthogonalLoop=1;jettySize=auto;html=1;strokeColor=default;align=center;verticalAlign=middle;fontFamily=Helvetica;fontSize=11;fontColor=default;labelBackgroundColor=default;startFill=0;endArrow=none;" edge="1" parent="1" source="W9ihRem-RopsjmL4uKQ5-20" target="W9ihRem-RopsjmL4uKQ5-74">
          <mxGeometry relative="1" as="geometry" />
        </mxCell>
        <mxCell id="W9ihRem-RopsjmL4uKQ5-15" value="" style="edgeStyle=none;shape=connector;rounded=0;orthogonalLoop=1;jettySize=auto;html=1;strokeColor=default;align=center;verticalAlign=middle;fontFamily=Helvetica;fontSize=11;fontColor=default;labelBackgroundColor=default;startFill=0;endArrow=none;" edge="1" parent="1" source="W9ihRem-RopsjmL4uKQ5-20" target="W9ihRem-RopsjmL4uKQ5-155">
          <mxGeometry relative="1" as="geometry" />
        </mxCell>
        <mxCell id="W9ihRem-RopsjmL4uKQ5-16" value="" style="edgeStyle=none;shape=connector;rounded=0;orthogonalLoop=1;jettySize=auto;html=1;strokeColor=default;align=center;verticalAlign=middle;fontFamily=Helvetica;fontSize=11;fontColor=default;labelBackgroundColor=default;startFill=0;endArrow=none;" edge="1" parent="1" source="W9ihRem-RopsjmL4uKQ5-20" target="W9ihRem-RopsjmL4uKQ5-156">
          <mxGeometry relative="1" as="geometry" />
        </mxCell>
        <mxCell id="W9ihRem-RopsjmL4uKQ5-17" value="" style="edgeStyle=none;shape=connector;rounded=0;orthogonalLoop=1;jettySize=auto;html=1;strokeColor=default;align=center;verticalAlign=middle;fontFamily=Helvetica;fontSize=11;fontColor=default;labelBackgroundColor=default;startFill=0;endArrow=none;" edge="1" parent="1" source="W9ihRem-RopsjmL4uKQ5-20" target="W9ihRem-RopsjmL4uKQ5-157">
          <mxGeometry relative="1" as="geometry" />
        </mxCell>
        <mxCell id="W9ihRem-RopsjmL4uKQ5-18" value="" style="edgeStyle=none;shape=connector;rounded=0;orthogonalLoop=1;jettySize=auto;html=1;strokeColor=default;align=center;verticalAlign=middle;fontFamily=Helvetica;fontSize=11;fontColor=default;labelBackgroundColor=default;startFill=0;endArrow=none;exitX=0.75;exitY=0;exitDx=0;exitDy=0;" edge="1" parent="1" source="W9ihRem-RopsjmL4uKQ5-20" target="W9ihRem-RopsjmL4uKQ5-158">
          <mxGeometry relative="1" as="geometry">
            <mxPoint x="124.97905492294265" y="10" as="sourcePoint" />
          </mxGeometry>
        </mxCell>
        <mxCell id="W9ihRem-RopsjmL4uKQ5-19" value="" style="edgeStyle=none;shape=connector;rounded=0;orthogonalLoop=1;jettySize=auto;html=1;strokeColor=default;align=center;verticalAlign=middle;fontFamily=Helvetica;fontSize=11;fontColor=default;labelBackgroundColor=default;startFill=0;endArrow=none;" edge="1" parent="1" source="W9ihRem-RopsjmL4uKQ5-20" target="W9ihRem-RopsjmL4uKQ5-159">
          <mxGeometry relative="1" as="geometry" />
        </mxCell>
        <mxCell id="W9ihRem-RopsjmL4uKQ5-20" value="&lt;font style=&quot;font-size: 22px;&quot;&gt;Admin&lt;/font&gt;" style="rounded=0;whiteSpace=wrap;html=1;" vertex="1" parent="1">
          <mxGeometry x="-80" y="-290" width="120" height="60" as="geometry" />
        </mxCell>
        <mxCell id="W9ihRem-RopsjmL4uKQ5-21" value="" style="edgeStyle=none;shape=connector;rounded=0;orthogonalLoop=1;jettySize=auto;html=1;strokeColor=default;align=center;verticalAlign=middle;fontFamily=Helvetica;fontSize=11;fontColor=default;labelBackgroundColor=default;startFill=0;endArrow=none;" edge="1" parent="1" source="W9ihRem-RopsjmL4uKQ5-26" target="W9ihRem-RopsjmL4uKQ5-125">
          <mxGeometry relative="1" as="geometry" />
        </mxCell>
        <mxCell id="W9ihRem-RopsjmL4uKQ5-22" value="" style="edgeStyle=none;shape=connector;rounded=0;orthogonalLoop=1;jettySize=auto;html=1;strokeColor=default;align=center;verticalAlign=middle;fontFamily=Helvetica;fontSize=11;fontColor=default;labelBackgroundColor=default;startFill=0;endArrow=none;" edge="1" parent="1" source="W9ihRem-RopsjmL4uKQ5-26" target="W9ihRem-RopsjmL4uKQ5-126">
          <mxGeometry relative="1" as="geometry" />
        </mxCell>
        <mxCell id="W9ihRem-RopsjmL4uKQ5-23" value="" style="edgeStyle=none;shape=connector;rounded=0;orthogonalLoop=1;jettySize=auto;html=1;strokeColor=default;align=center;verticalAlign=middle;fontFamily=Helvetica;fontSize=11;fontColor=default;labelBackgroundColor=default;startFill=0;endArrow=none;" edge="1" parent="1" source="W9ihRem-RopsjmL4uKQ5-26" target="W9ihRem-RopsjmL4uKQ5-127">
          <mxGeometry relative="1" as="geometry" />
        </mxCell>
        <mxCell id="W9ihRem-RopsjmL4uKQ5-24" value="" style="edgeStyle=none;shape=connector;rounded=0;orthogonalLoop=1;jettySize=auto;html=1;strokeColor=default;align=center;verticalAlign=middle;fontFamily=Helvetica;fontSize=11;fontColor=default;labelBackgroundColor=default;startFill=0;endArrow=none;" edge="1" parent="1" source="W9ihRem-RopsjmL4uKQ5-26" target="W9ihRem-RopsjmL4uKQ5-128">
          <mxGeometry relative="1" as="geometry" />
        </mxCell>
        <mxCell id="W9ihRem-RopsjmL4uKQ5-25" value="" style="edgeStyle=none;shape=connector;rounded=0;orthogonalLoop=1;jettySize=auto;html=1;strokeColor=default;align=center;verticalAlign=middle;fontFamily=Helvetica;fontSize=11;fontColor=default;labelBackgroundColor=default;startFill=0;endArrow=none;" edge="1" parent="1" source="W9ihRem-RopsjmL4uKQ5-26" target="W9ihRem-RopsjmL4uKQ5-129">
          <mxGeometry relative="1" as="geometry" />
        </mxCell>
        <mxCell id="W9ihRem-RopsjmL4uKQ5-26" value="&lt;font style=&quot;font-size: 22px;&quot;&gt;Achievements&lt;/font&gt;" style="rounded=0;whiteSpace=wrap;html=1;" vertex="1" parent="1">
          <mxGeometry x="740" y="440" width="190" height="80" as="geometry" />
        </mxCell>
        <mxCell id="W9ihRem-RopsjmL4uKQ5-27" value="" style="edgeStyle=none;shape=connector;rounded=0;orthogonalLoop=1;jettySize=auto;html=1;strokeColor=default;align=center;verticalAlign=middle;fontFamily=Helvetica;fontSize=11;fontColor=default;labelBackgroundColor=default;startFill=0;endArrow=none;" edge="1" parent="1" source="W9ihRem-RopsjmL4uKQ5-31" target="W9ihRem-RopsjmL4uKQ5-134">
          <mxGeometry relative="1" as="geometry" />
        </mxCell>
        <mxCell id="W9ihRem-RopsjmL4uKQ5-28" value="" style="edgeStyle=none;shape=connector;rounded=0;orthogonalLoop=1;jettySize=auto;html=1;strokeColor=default;align=center;verticalAlign=middle;fontFamily=Helvetica;fontSize=11;fontColor=default;labelBackgroundColor=default;startFill=0;endArrow=none;" edge="1" parent="1" source="W9ihRem-RopsjmL4uKQ5-31" target="W9ihRem-RopsjmL4uKQ5-135">
          <mxGeometry relative="1" as="geometry" />
        </mxCell>
        <mxCell id="W9ihRem-RopsjmL4uKQ5-29" value="" style="edgeStyle=none;shape=connector;rounded=0;orthogonalLoop=1;jettySize=auto;html=1;strokeColor=default;align=center;verticalAlign=middle;fontFamily=Helvetica;fontSize=11;fontColor=default;labelBackgroundColor=default;startFill=0;endArrow=none;" edge="1" parent="1" source="W9ihRem-RopsjmL4uKQ5-31" target="W9ihRem-RopsjmL4uKQ5-136">
          <mxGeometry relative="1" as="geometry" />
        </mxCell>
        <mxCell id="W9ihRem-RopsjmL4uKQ5-30" value="" style="edgeStyle=none;shape=connector;rounded=0;orthogonalLoop=1;jettySize=auto;html=1;strokeColor=default;align=center;verticalAlign=middle;fontFamily=Helvetica;fontSize=11;fontColor=default;labelBackgroundColor=default;startFill=0;endArrow=none;" edge="1" parent="1" source="W9ihRem-RopsjmL4uKQ5-31" target="W9ihRem-RopsjmL4uKQ5-137">
          <mxGeometry relative="1" as="geometry" />
        </mxCell>
        <mxCell id="W9ihRem-RopsjmL4uKQ5-31" value="&lt;font style=&quot;font-size: 22px;&quot;&gt;Streak&lt;/font&gt;" style="rounded=0;whiteSpace=wrap;html=1;" vertex="1" parent="1">
          <mxGeometry x="720" y="-80" width="120" height="60" as="geometry" />
        </mxCell>
        <mxCell id="W9ihRem-RopsjmL4uKQ5-32" value="" style="edgeStyle=none;shape=connector;rounded=0;orthogonalLoop=1;jettySize=auto;html=1;strokeColor=default;align=center;verticalAlign=middle;fontFamily=Helvetica;fontSize=11;fontColor=default;labelBackgroundColor=default;startFill=0;endArrow=none;" edge="1" parent="1" target="W9ihRem-RopsjmL4uKQ5-145">
          <mxGeometry relative="1" as="geometry">
            <mxPoint x="-160" y="610" as="sourcePoint" />
          </mxGeometry>
        </mxCell>
        <mxCell id="W9ihRem-RopsjmL4uKQ5-33" value="&lt;font style=&quot;font-size: 22px;&quot;&gt;Habit&lt;/font&gt;" style="rounded=0;whiteSpace=wrap;html=1;" vertex="1" parent="1">
          <mxGeometry x="-150" y="565" width="160" height="70" as="geometry" />
        </mxCell>
        <mxCell id="W9ihRem-RopsjmL4uKQ5-34" value="" style="edgeStyle=none;shape=connector;rounded=0;orthogonalLoop=1;jettySize=auto;html=1;strokeColor=default;align=center;verticalAlign=middle;fontFamily=Helvetica;fontSize=11;fontColor=default;labelBackgroundColor=default;startFill=0;endArrow=none;" edge="1" parent="1" source="W9ihRem-RopsjmL4uKQ5-39" target="W9ihRem-RopsjmL4uKQ5-82">
          <mxGeometry relative="1" as="geometry" />
        </mxCell>
        <mxCell id="W9ihRem-RopsjmL4uKQ5-35" value="" style="edgeStyle=none;shape=connector;rounded=0;orthogonalLoop=1;jettySize=auto;html=1;strokeColor=default;align=center;verticalAlign=middle;fontFamily=Helvetica;fontSize=11;fontColor=default;labelBackgroundColor=default;startFill=0;endArrow=none;" edge="1" parent="1" source="W9ihRem-RopsjmL4uKQ5-39" target="W9ihRem-RopsjmL4uKQ5-130">
          <mxGeometry relative="1" as="geometry" />
        </mxCell>
        <mxCell id="W9ihRem-RopsjmL4uKQ5-36" value="" style="edgeStyle=none;shape=connector;rounded=0;orthogonalLoop=1;jettySize=auto;html=1;strokeColor=default;align=center;verticalAlign=middle;fontFamily=Helvetica;fontSize=11;fontColor=default;labelBackgroundColor=default;startFill=0;endArrow=none;" edge="1" parent="1" source="W9ihRem-RopsjmL4uKQ5-39" target="W9ihRem-RopsjmL4uKQ5-131">
          <mxGeometry relative="1" as="geometry" />
        </mxCell>
        <mxCell id="W9ihRem-RopsjmL4uKQ5-37" value="" style="edgeStyle=none;shape=connector;rounded=0;orthogonalLoop=1;jettySize=auto;html=1;strokeColor=default;align=center;verticalAlign=middle;fontFamily=Helvetica;fontSize=11;fontColor=default;labelBackgroundColor=default;startFill=0;endArrow=none;" edge="1" parent="1" source="W9ihRem-RopsjmL4uKQ5-39" target="W9ihRem-RopsjmL4uKQ5-132">
          <mxGeometry relative="1" as="geometry" />
        </mxCell>
        <mxCell id="W9ihRem-RopsjmL4uKQ5-38" value="" style="edgeStyle=none;shape=connector;rounded=0;orthogonalLoop=1;jettySize=auto;html=1;strokeColor=default;align=center;verticalAlign=middle;fontFamily=Helvetica;fontSize=11;fontColor=default;labelBackgroundColor=default;startFill=0;endArrow=none;" edge="1" parent="1" source="W9ihRem-RopsjmL4uKQ5-39" target="W9ihRem-RopsjmL4uKQ5-133">
          <mxGeometry relative="1" as="geometry" />
        </mxCell>
        <mxCell id="W9ihRem-RopsjmL4uKQ5-39" value="&lt;font style=&quot;font-size: 22px;&quot;&gt;Group&lt;/font&gt;" style="rounded=0;whiteSpace=wrap;html=1;" vertex="1" parent="1">
          <mxGeometry x="355" y="-160" width="120" height="60" as="geometry" />
        </mxCell>
        <mxCell id="W9ihRem-RopsjmL4uKQ5-40" style="rounded=0;orthogonalLoop=1;jettySize=auto;html=1;endArrow=none;startFill=0;" edge="1" parent="1" source="W9ihRem-RopsjmL4uKQ5-53" target="W9ihRem-RopsjmL4uKQ5-70">
          <mxGeometry relative="1" as="geometry" />
        </mxCell>
        <mxCell id="W9ihRem-RopsjmL4uKQ5-41" value="" style="shape=connector;rounded=0;orthogonalLoop=1;jettySize=auto;html=1;strokeColor=default;align=center;verticalAlign=middle;fontFamily=Helvetica;fontSize=11;fontColor=default;labelBackgroundColor=default;startFill=0;endArrow=none;" edge="1" parent="1" source="W9ihRem-RopsjmL4uKQ5-53" target="W9ihRem-RopsjmL4uKQ5-72">
          <mxGeometry relative="1" as="geometry" />
        </mxCell>
        <mxCell id="W9ihRem-RopsjmL4uKQ5-42" value="" style="shape=connector;rounded=0;orthogonalLoop=1;jettySize=auto;html=1;strokeColor=default;align=center;verticalAlign=middle;fontFamily=Helvetica;fontSize=11;fontColor=default;labelBackgroundColor=default;startFill=0;endArrow=none;" edge="1" parent="1" source="W9ihRem-RopsjmL4uKQ5-53" target="W9ihRem-RopsjmL4uKQ5-76">
          <mxGeometry relative="1" as="geometry" />
        </mxCell>
        <mxCell id="W9ihRem-RopsjmL4uKQ5-43" value="" style="edgeStyle=none;shape=connector;rounded=0;orthogonalLoop=1;jettySize=auto;html=1;strokeColor=default;align=center;verticalAlign=middle;fontFamily=Helvetica;fontSize=11;fontColor=default;labelBackgroundColor=default;startFill=0;endArrow=none;" edge="1" parent="1" source="W9ihRem-RopsjmL4uKQ5-53" target="W9ihRem-RopsjmL4uKQ5-78">
          <mxGeometry relative="1" as="geometry" />
        </mxCell>
        <mxCell id="W9ihRem-RopsjmL4uKQ5-44" value="" style="edgeStyle=none;shape=connector;rounded=0;orthogonalLoop=1;jettySize=auto;html=1;strokeColor=default;align=center;verticalAlign=middle;fontFamily=Helvetica;fontSize=11;fontColor=default;labelBackgroundColor=default;startFill=0;endArrow=none;" edge="1" parent="1" source="W9ihRem-RopsjmL4uKQ5-53" target="W9ihRem-RopsjmL4uKQ5-80">
          <mxGeometry relative="1" as="geometry" />
        </mxCell>
        <mxCell id="W9ihRem-RopsjmL4uKQ5-45" value="" style="edgeStyle=none;shape=connector;rounded=0;orthogonalLoop=1;jettySize=auto;html=1;strokeColor=default;align=center;verticalAlign=middle;fontFamily=Helvetica;fontSize=11;fontColor=default;labelBackgroundColor=default;startFill=0;endArrow=none;" edge="1" parent="1" source="W9ihRem-RopsjmL4uKQ5-53" target="W9ihRem-RopsjmL4uKQ5-85">
          <mxGeometry relative="1" as="geometry" />
        </mxCell>
        <mxCell id="W9ihRem-RopsjmL4uKQ5-46" value="" style="edgeStyle=none;shape=connector;rounded=0;orthogonalLoop=1;jettySize=auto;html=1;strokeColor=default;align=center;verticalAlign=middle;fontFamily=Helvetica;fontSize=11;fontColor=default;labelBackgroundColor=default;startFill=0;endArrow=none;" edge="1" parent="1" source="W9ihRem-RopsjmL4uKQ5-53" target="W9ihRem-RopsjmL4uKQ5-87">
          <mxGeometry relative="1" as="geometry" />
        </mxCell>
        <mxCell id="W9ihRem-RopsjmL4uKQ5-47" value="" style="edgeStyle=none;shape=connector;rounded=0;orthogonalLoop=1;jettySize=auto;html=1;strokeColor=default;align=center;verticalAlign=middle;fontFamily=Helvetica;fontSize=11;fontColor=default;labelBackgroundColor=default;startFill=0;endArrow=none;" edge="1" parent="1" source="W9ihRem-RopsjmL4uKQ5-53" target="W9ihRem-RopsjmL4uKQ5-149">
          <mxGeometry relative="1" as="geometry" />
        </mxCell>
        <mxCell id="W9ihRem-RopsjmL4uKQ5-48" value="" style="edgeStyle=none;shape=connector;rounded=0;orthogonalLoop=1;jettySize=auto;html=1;strokeColor=default;align=center;verticalAlign=middle;fontFamily=Helvetica;fontSize=11;fontColor=default;labelBackgroundColor=default;startFill=0;endArrow=none;" edge="1" parent="1" source="W9ihRem-RopsjmL4uKQ5-53" target="W9ihRem-RopsjmL4uKQ5-150">
          <mxGeometry relative="1" as="geometry" />
        </mxCell>
        <mxCell id="W9ihRem-RopsjmL4uKQ5-49" value="" style="edgeStyle=none;shape=connector;rounded=0;orthogonalLoop=1;jettySize=auto;html=1;strokeColor=default;align=center;verticalAlign=middle;fontFamily=Helvetica;fontSize=11;fontColor=default;labelBackgroundColor=default;startFill=0;endArrow=none;" edge="1" parent="1" source="W9ihRem-RopsjmL4uKQ5-53" target="W9ihRem-RopsjmL4uKQ5-151">
          <mxGeometry relative="1" as="geometry" />
        </mxCell>
        <mxCell id="W9ihRem-RopsjmL4uKQ5-50" value="" style="edgeStyle=none;shape=connector;rounded=0;orthogonalLoop=1;jettySize=auto;html=1;strokeColor=default;align=center;verticalAlign=middle;fontFamily=Helvetica;fontSize=11;fontColor=default;labelBackgroundColor=default;startFill=0;endArrow=none;" edge="1" parent="1" source="W9ihRem-RopsjmL4uKQ5-53" target="W9ihRem-RopsjmL4uKQ5-152">
          <mxGeometry relative="1" as="geometry" />
        </mxCell>
        <mxCell id="W9ihRem-RopsjmL4uKQ5-51" value="" style="edgeStyle=none;shape=connector;rounded=0;orthogonalLoop=1;jettySize=auto;html=1;strokeColor=default;align=center;verticalAlign=middle;fontFamily=Helvetica;fontSize=11;fontColor=default;labelBackgroundColor=default;startFill=0;endArrow=none;" edge="1" parent="1" source="W9ihRem-RopsjmL4uKQ5-53" target="W9ihRem-RopsjmL4uKQ5-153">
          <mxGeometry relative="1" as="geometry" />
        </mxCell>
        <mxCell id="W9ihRem-RopsjmL4uKQ5-52" value="" style="edgeStyle=none;shape=connector;rounded=0;orthogonalLoop=1;jettySize=auto;html=1;strokeColor=default;align=center;verticalAlign=middle;fontFamily=Helvetica;fontSize=11;fontColor=default;labelBackgroundColor=default;startFill=0;endArrow=none;" edge="1" parent="1" source="W9ihRem-RopsjmL4uKQ5-53" target="W9ihRem-RopsjmL4uKQ5-154">
          <mxGeometry relative="1" as="geometry" />
        </mxCell>
        <mxCell id="W9ihRem-RopsjmL4uKQ5-53" value="&lt;font style=&quot;font-size: 22px;&quot;&gt;User&lt;/font&gt;" style="rounded=0;whiteSpace=wrap;html=1;" vertex="1" parent="1">
          <mxGeometry x="-240" y="210" width="120" height="60" as="geometry" />
        </mxCell>
        <mxCell id="W9ihRem-RopsjmL4uKQ5-54" value="" style="edgeStyle=none;shape=connector;rounded=0;orthogonalLoop=1;jettySize=auto;html=1;strokeColor=default;align=center;verticalAlign=middle;fontFamily=Helvetica;fontSize=11;fontColor=default;labelBackgroundColor=default;startFill=0;endArrow=none;" edge="1" parent="1" source="W9ihRem-RopsjmL4uKQ5-57" target="W9ihRem-RopsjmL4uKQ5-142">
          <mxGeometry relative="1" as="geometry" />
        </mxCell>
        <mxCell id="W9ihRem-RopsjmL4uKQ5-55" value="" style="edgeStyle=none;shape=connector;rounded=0;orthogonalLoop=1;jettySize=auto;html=1;strokeColor=default;align=center;verticalAlign=middle;fontFamily=Helvetica;fontSize=11;fontColor=default;labelBackgroundColor=default;startFill=0;endArrow=none;" edge="1" parent="1" source="W9ihRem-RopsjmL4uKQ5-57" target="W9ihRem-RopsjmL4uKQ5-143">
          <mxGeometry relative="1" as="geometry" />
        </mxCell>
        <mxCell id="W9ihRem-RopsjmL4uKQ5-56" value="" style="edgeStyle=none;shape=connector;rounded=0;orthogonalLoop=1;jettySize=auto;html=1;strokeColor=default;align=center;verticalAlign=middle;fontFamily=Helvetica;fontSize=11;fontColor=default;labelBackgroundColor=default;startFill=0;endArrow=none;" edge="1" parent="1" source="W9ihRem-RopsjmL4uKQ5-57" target="W9ihRem-RopsjmL4uKQ5-144">
          <mxGeometry relative="1" as="geometry" />
        </mxCell>
        <mxCell id="W9ihRem-RopsjmL4uKQ5-57" value="&lt;font style=&quot;font-size: 22px;&quot;&gt;Goals&lt;/font&gt;" style="rounded=0;whiteSpace=wrap;html=1;" vertex="1" parent="1">
          <mxGeometry x="290" y="610" width="120" height="60" as="geometry" />
        </mxCell>
        <mxCell id="W9ihRem-RopsjmL4uKQ5-58" value="" style="edgeStyle=none;shape=connector;rounded=0;orthogonalLoop=1;jettySize=auto;html=1;strokeColor=default;align=center;verticalAlign=middle;fontFamily=Helvetica;fontSize=11;fontColor=default;labelBackgroundColor=default;startFill=0;endArrow=none;" edge="1" parent="1" source="W9ihRem-RopsjmL4uKQ5-63" target="W9ihRem-RopsjmL4uKQ5-93">
          <mxGeometry relative="1" as="geometry" />
        </mxCell>
        <mxCell id="W9ihRem-RopsjmL4uKQ5-59" value="" style="edgeStyle=none;shape=connector;rounded=0;orthogonalLoop=1;jettySize=auto;html=1;strokeColor=default;align=center;verticalAlign=middle;fontFamily=Helvetica;fontSize=11;fontColor=default;labelBackgroundColor=default;startFill=0;endArrow=none;" edge="1" parent="1" source="W9ihRem-RopsjmL4uKQ5-63" target="W9ihRem-RopsjmL4uKQ5-138">
          <mxGeometry relative="1" as="geometry" />
        </mxCell>
        <mxCell id="W9ihRem-RopsjmL4uKQ5-60" value="" style="edgeStyle=none;shape=connector;rounded=0;orthogonalLoop=1;jettySize=auto;html=1;strokeColor=default;align=center;verticalAlign=middle;fontFamily=Helvetica;fontSize=11;fontColor=default;labelBackgroundColor=default;startFill=0;endArrow=none;" edge="1" parent="1" source="W9ihRem-RopsjmL4uKQ5-63" target="W9ihRem-RopsjmL4uKQ5-139">
          <mxGeometry relative="1" as="geometry" />
        </mxCell>
        <mxCell id="W9ihRem-RopsjmL4uKQ5-61" value="" style="edgeStyle=none;shape=connector;rounded=0;orthogonalLoop=1;jettySize=auto;html=1;strokeColor=default;align=center;verticalAlign=middle;fontFamily=Helvetica;fontSize=11;fontColor=default;labelBackgroundColor=default;startFill=0;endArrow=none;" edge="1" parent="1" source="W9ihRem-RopsjmL4uKQ5-63" target="W9ihRem-RopsjmL4uKQ5-140">
          <mxGeometry relative="1" as="geometry" />
        </mxCell>
        <mxCell id="W9ihRem-RopsjmL4uKQ5-62" value="" style="edgeStyle=none;shape=connector;rounded=0;orthogonalLoop=1;jettySize=auto;html=1;strokeColor=default;align=center;verticalAlign=middle;fontFamily=Helvetica;fontSize=11;fontColor=default;labelBackgroundColor=default;startFill=0;endArrow=none;" edge="1" parent="1" source="W9ihRem-RopsjmL4uKQ5-63" target="W9ihRem-RopsjmL4uKQ5-141">
          <mxGeometry relative="1" as="geometry" />
        </mxCell>
        <mxCell id="W9ihRem-RopsjmL4uKQ5-63" value="&lt;font style=&quot;font-size: 22px;&quot;&gt;Rewards/Penalties&lt;/font&gt;" style="rounded=0;whiteSpace=wrap;html=1;" vertex="1" parent="1">
          <mxGeometry x="789" y="230" width="240" height="80" as="geometry" />
        </mxCell>
        <mxCell id="W9ihRem-RopsjmL4uKQ5-64" value="" style="edgeStyle=none;shape=link;rounded=0;orthogonalLoop=1;jettySize=auto;html=1;strokeColor=default;align=center;verticalAlign=middle;fontFamily=Helvetica;fontSize=11;fontColor=default;labelBackgroundColor=default;startFill=0;endArrow=none;exitX=0.75;exitY=0;exitDx=0;exitDy=0;" edge="1" parent="1" source="W9ihRem-RopsjmL4uKQ5-8" target="W9ihRem-RopsjmL4uKQ5-89">
          <mxGeometry relative="1" as="geometry" />
        </mxCell>
        <mxCell id="W9ihRem-RopsjmL4uKQ5-65" style="edgeStyle=none;shape=link;rounded=0;orthogonalLoop=1;jettySize=auto;html=1;entryX=0.5;entryY=1;entryDx=0;entryDy=0;strokeColor=default;align=center;verticalAlign=middle;fontFamily=Helvetica;fontSize=11;fontColor=default;labelBackgroundColor=default;startFill=0;endArrow=none;exitX=1;exitY=0.25;exitDx=0;exitDy=0;" edge="1" parent="1" source="W9ihRem-RopsjmL4uKQ5-8" target="W9ihRem-RopsjmL4uKQ5-93">
          <mxGeometry relative="1" as="geometry" />
        </mxCell>
        <mxCell id="W9ihRem-RopsjmL4uKQ5-66" value="" style="edgeStyle=none;shape=connector;rounded=0;orthogonalLoop=1;jettySize=auto;html=1;strokeColor=default;align=center;verticalAlign=middle;fontFamily=Helvetica;fontSize=11;fontColor=default;labelBackgroundColor=default;startFill=0;endArrow=none;exitX=0.389;exitY=0.982;exitDx=0;exitDy=0;exitPerimeter=0;" edge="1" parent="1" source="W9ihRem-RopsjmL4uKQ5-8" target="W9ihRem-RopsjmL4uKQ5-121">
          <mxGeometry relative="1" as="geometry" />
        </mxCell>
        <mxCell id="W9ihRem-RopsjmL4uKQ5-67" value="" style="edgeStyle=none;shape=connector;rounded=0;orthogonalLoop=1;jettySize=auto;html=1;strokeColor=default;align=center;verticalAlign=middle;fontFamily=Helvetica;fontSize=11;fontColor=default;labelBackgroundColor=default;startFill=0;endArrow=none;exitX=0.043;exitY=1;exitDx=0;exitDy=0;exitPerimeter=0;" edge="1" parent="1" source="W9ihRem-RopsjmL4uKQ5-8" target="W9ihRem-RopsjmL4uKQ5-123">
          <mxGeometry relative="1" as="geometry" />
        </mxCell>
        <mxCell id="W9ihRem-RopsjmL4uKQ5-68" value="&lt;font style=&quot;font-size: 22px;&quot;&gt;ProgressReport&lt;/font&gt;" style="rounded=0;whiteSpace=wrap;html=1;" vertex="1" parent="1">
          <mxGeometry x="640" y="775" width="210" height="80" as="geometry" />
        </mxCell>
        <mxCell id="W9ihRem-RopsjmL4uKQ5-69" style="shape=connector;rounded=0;orthogonalLoop=1;jettySize=auto;html=1;strokeColor=default;align=center;verticalAlign=middle;fontFamily=Helvetica;fontSize=11;fontColor=default;labelBackgroundColor=default;startFill=0;endArrow=none;" edge="1" parent="1" source="W9ihRem-RopsjmL4uKQ5-70" target="W9ihRem-RopsjmL4uKQ5-39">
          <mxGeometry relative="1" as="geometry" />
        </mxCell>
        <mxCell id="W9ihRem-RopsjmL4uKQ5-70" value="&lt;font style=&quot;font-size: 17px;&quot;&gt;forms&lt;/font&gt;" style="rhombus;whiteSpace=wrap;html=1;" vertex="1" parent="1">
          <mxGeometry x="430" y="18" width="80" height="80" as="geometry" />
        </mxCell>
        <mxCell id="W9ihRem-RopsjmL4uKQ5-71" style="shape=connector;rounded=0;orthogonalLoop=1;jettySize=auto;html=1;entryX=0.5;entryY=0;entryDx=0;entryDy=0;strokeColor=default;align=center;verticalAlign=middle;fontFamily=Helvetica;fontSize=11;fontColor=default;labelBackgroundColor=default;startFill=0;endArrow=none;" edge="1" parent="1" source="W9ihRem-RopsjmL4uKQ5-72" target="W9ihRem-RopsjmL4uKQ5-57">
          <mxGeometry relative="1" as="geometry" />
        </mxCell>
        <mxCell id="W9ihRem-RopsjmL4uKQ5-72" value="&lt;font style=&quot;font-size: 17px;&quot;&gt;sets&lt;/font&gt;" style="rhombus;whiteSpace=wrap;html=1;rounded=0;" vertex="1" parent="1">
          <mxGeometry x="305" y="455" width="80" height="80" as="geometry" />
        </mxCell>
        <mxCell id="W9ihRem-RopsjmL4uKQ5-73" style="edgeStyle=orthogonalEdgeStyle;shape=connector;rounded=0;orthogonalLoop=1;jettySize=auto;html=1;strokeColor=default;align=center;verticalAlign=middle;fontFamily=Helvetica;fontSize=11;fontColor=default;labelBackgroundColor=default;startFill=0;endArrow=none;" edge="1" parent="1" source="W9ihRem-RopsjmL4uKQ5-74" target="W9ihRem-RopsjmL4uKQ5-39">
          <mxGeometry relative="1" as="geometry" />
        </mxCell>
        <mxCell id="W9ihRem-RopsjmL4uKQ5-74" value="&lt;font style=&quot;font-size: 18px;&quot;&gt;Manage&lt;/font&gt;" style="rhombus;whiteSpace=wrap;html=1;rounded=0;" vertex="1" parent="1">
          <mxGeometry x="80" y="-190" width="120" height="120" as="geometry" />
        </mxCell>
        <mxCell id="W9ihRem-RopsjmL4uKQ5-75" style="edgeStyle=orthogonalEdgeStyle;shape=connector;rounded=0;orthogonalLoop=1;jettySize=auto;html=1;strokeColor=default;align=center;verticalAlign=middle;fontFamily=Helvetica;fontSize=11;fontColor=default;labelBackgroundColor=default;startFill=0;endArrow=none;" edge="1" parent="1" source="W9ihRem-RopsjmL4uKQ5-76" target="W9ihRem-RopsjmL4uKQ5-63">
          <mxGeometry relative="1" as="geometry" />
        </mxCell>
        <mxCell id="W9ihRem-RopsjmL4uKQ5-76" value="&lt;font style=&quot;font-size: 16px;&quot;&gt;Earns&lt;/font&gt;" style="rhombus;whiteSpace=wrap;html=1;rounded=0;" vertex="1" parent="1">
          <mxGeometry x="575" y="220" width="95" height="100" as="geometry" />
        </mxCell>
        <mxCell id="W9ihRem-RopsjmL4uKQ5-77" style="edgeStyle=none;shape=link;rounded=0;orthogonalLoop=1;jettySize=auto;html=1;strokeColor=default;align=center;verticalAlign=middle;fontFamily=Helvetica;fontSize=11;fontColor=default;labelBackgroundColor=default;startFill=0;endArrow=none;entryX=1;entryY=0.5;entryDx=0;entryDy=0;" edge="1" parent="1" source="W9ihRem-RopsjmL4uKQ5-78" target="W9ihRem-RopsjmL4uKQ5-13">
          <mxGeometry relative="1" as="geometry">
            <mxPoint x="120" y="590" as="targetPoint" />
          </mxGeometry>
        </mxCell>
        <mxCell id="W9ihRem-RopsjmL4uKQ5-78" value="&lt;font style=&quot;font-size: 16px;&quot;&gt;Enters&lt;/font&gt;" style="rhombus;whiteSpace=wrap;html=1;rounded=0;" vertex="1" parent="1">
          <mxGeometry x="100" y="480" width="105" height="110" as="geometry" />
        </mxCell>
        <mxCell id="W9ihRem-RopsjmL4uKQ5-79" style="edgeStyle=none;shape=connector;rounded=0;orthogonalLoop=1;jettySize=auto;html=1;entryX=0.5;entryY=1;entryDx=0;entryDy=0;strokeColor=default;align=center;verticalAlign=middle;fontFamily=Helvetica;fontSize=11;fontColor=default;labelBackgroundColor=default;startFill=0;endArrow=none;" edge="1" parent="1" source="W9ihRem-RopsjmL4uKQ5-80" target="W9ihRem-RopsjmL4uKQ5-31">
          <mxGeometry relative="1" as="geometry" />
        </mxCell>
        <mxCell id="W9ihRem-RopsjmL4uKQ5-80" value="&lt;font style=&quot;font-size: 17px;&quot;&gt;Creates&lt;/font&gt;" style="rhombus;whiteSpace=wrap;html=1;rounded=0;" vertex="1" parent="1">
          <mxGeometry x="510" y="70" width="100" height="100" as="geometry" />
        </mxCell>
        <mxCell id="W9ihRem-RopsjmL4uKQ5-81" value="" style="edgeStyle=none;shape=connector;rounded=0;orthogonalLoop=1;jettySize=auto;html=1;strokeColor=default;align=center;verticalAlign=middle;fontFamily=Helvetica;fontSize=11;fontColor=default;labelBackgroundColor=default;startFill=0;endArrow=none;" edge="1" parent="1" source="W9ihRem-RopsjmL4uKQ5-82" target="W9ihRem-RopsjmL4uKQ5-31">
          <mxGeometry relative="1" as="geometry" />
        </mxCell>
        <mxCell id="W9ihRem-RopsjmL4uKQ5-82" value="&lt;font style=&quot;font-size: 16px;&quot;&gt;Creates&lt;/font&gt;" style="rhombus;whiteSpace=wrap;html=1;rounded=0;" vertex="1" parent="1">
          <mxGeometry x="550" y="-190" width="105" height="100" as="geometry" />
        </mxCell>
        <mxCell id="W9ihRem-RopsjmL4uKQ5-83" style="edgeStyle=none;shape=connector;rounded=0;orthogonalLoop=1;jettySize=auto;html=1;exitX=0.5;exitY=1;exitDx=0;exitDy=0;strokeColor=default;align=center;verticalAlign=middle;fontFamily=Helvetica;fontSize=11;fontColor=default;labelBackgroundColor=default;startFill=0;endArrow=none;" edge="1" parent="1" source="W9ihRem-RopsjmL4uKQ5-31" target="W9ihRem-RopsjmL4uKQ5-31">
          <mxGeometry relative="1" as="geometry" />
        </mxCell>
        <mxCell id="W9ihRem-RopsjmL4uKQ5-84" style="edgeStyle=none;shape=connector;rounded=0;orthogonalLoop=1;jettySize=auto;html=1;entryX=0;entryY=0.5;entryDx=0;entryDy=0;strokeColor=default;align=center;verticalAlign=middle;fontFamily=Helvetica;fontSize=11;fontColor=default;labelBackgroundColor=default;startFill=0;endArrow=none;" edge="1" parent="1" source="W9ihRem-RopsjmL4uKQ5-85" target="W9ihRem-RopsjmL4uKQ5-26">
          <mxGeometry relative="1" as="geometry" />
        </mxCell>
        <mxCell id="W9ihRem-RopsjmL4uKQ5-85" value="&lt;font style=&quot;font-size: 16px;&quot;&gt;Earns&lt;/font&gt;" style="rhombus;whiteSpace=wrap;html=1;rounded=0;" vertex="1" parent="1">
          <mxGeometry x="590" y="375" width="80" height="80" as="geometry" />
        </mxCell>
        <mxCell id="W9ihRem-RopsjmL4uKQ5-86" style="edgeStyle=none;shape=link;rounded=0;orthogonalLoop=1;jettySize=auto;html=1;entryX=0.5;entryY=0;entryDx=0;entryDy=0;strokeColor=default;align=center;verticalAlign=middle;fontFamily=Helvetica;fontSize=11;fontColor=default;labelBackgroundColor=default;startFill=0;endArrow=none;" edge="1" parent="1" source="W9ihRem-RopsjmL4uKQ5-87" target="W9ihRem-RopsjmL4uKQ5-8">
          <mxGeometry relative="1" as="geometry" />
        </mxCell>
        <mxCell id="W9ihRem-RopsjmL4uKQ5-87" value="&lt;font style=&quot;font-size: 15px;&quot;&gt;Creates&lt;/font&gt;" style="rhombus;whiteSpace=wrap;html=1;rounded=0;" vertex="1" parent="1">
          <mxGeometry x="450" y="410" width="100" height="100" as="geometry" />
        </mxCell>
        <mxCell id="W9ihRem-RopsjmL4uKQ5-88" style="edgeStyle=none;shape=connector;rounded=0;orthogonalLoop=1;jettySize=auto;html=1;entryX=0.5;entryY=1;entryDx=0;entryDy=0;strokeColor=default;align=center;verticalAlign=middle;fontFamily=Helvetica;fontSize=11;fontColor=default;labelBackgroundColor=default;startFill=0;endArrow=none;" edge="1" parent="1" source="W9ihRem-RopsjmL4uKQ5-89" target="W9ihRem-RopsjmL4uKQ5-26">
          <mxGeometry relative="1" as="geometry" />
        </mxCell>
        <mxCell id="W9ihRem-RopsjmL4uKQ5-89" value="&lt;font style=&quot;font-size: 17px;&quot;&gt;Has&lt;/font&gt;" style="rhombus;whiteSpace=wrap;html=1;rounded=0;" vertex="1" parent="1">
          <mxGeometry x="820" y="590" width="80" height="80" as="geometry" />
        </mxCell>
        <mxCell id="W9ihRem-RopsjmL4uKQ5-90" style="edgeStyle=none;shape=connector;rounded=0;orthogonalLoop=1;jettySize=auto;html=1;entryX=0.5;entryY=1;entryDx=0;entryDy=0;strokeColor=default;align=center;verticalAlign=middle;fontFamily=Helvetica;fontSize=11;fontColor=default;labelBackgroundColor=default;startFill=0;endArrow=none;" edge="1" parent="1" source="W9ihRem-RopsjmL4uKQ5-91" target="W9ihRem-RopsjmL4uKQ5-57">
          <mxGeometry relative="1" as="geometry" />
        </mxCell>
        <mxCell id="W9ihRem-RopsjmL4uKQ5-91" value="&lt;font style=&quot;font-size: 17px;&quot;&gt;Has&lt;/font&gt;" style="rhombus;whiteSpace=wrap;html=1;fontSize=11;rounded=0;labelBackgroundColor=default;" vertex="1" parent="1">
          <mxGeometry x="390" y="710" width="80" height="80" as="geometry" />
        </mxCell>
        <mxCell id="W9ihRem-RopsjmL4uKQ5-92" value="&lt;font style=&quot;font-size: 16px;&quot;&gt;Includes&lt;/font&gt;" style="rhombus;whiteSpace=wrap;html=1;fontSize=11;rounded=0;labelBackgroundColor=default;" vertex="1" parent="1">
          <mxGeometry x="40" y="730" width="135" height="140" as="geometry" />
        </mxCell>
        <mxCell id="W9ihRem-RopsjmL4uKQ5-93" value="&lt;font style=&quot;font-size: 19px;&quot;&gt;has&lt;/font&gt;" style="rhombus;whiteSpace=wrap;html=1;rounded=0;" vertex="1" parent="1">
          <mxGeometry x="990" y="555" width="80" height="80" as="geometry" />
        </mxCell>
        <mxCell id="W9ihRem-RopsjmL4uKQ5-94" value="N" style="text;html=1;align=center;verticalAlign=middle;resizable=0;points=[];autosize=1;strokeColor=none;fillColor=none;fontFamily=Helvetica;fontSize=11;fontColor=default;labelBackgroundColor=default;" vertex="1" parent="1">
          <mxGeometry x="545" y="240" width="30" height="30" as="geometry" />
        </mxCell>
        <mxCell id="W9ihRem-RopsjmL4uKQ5-95" value="N" style="text;html=1;align=center;verticalAlign=middle;resizable=0;points=[];autosize=1;strokeColor=none;fillColor=none;fontFamily=Helvetica;fontSize=11;fontColor=default;labelBackgroundColor=default;" vertex="1" parent="1">
          <mxGeometry x="665" y="240" width="30" height="30" as="geometry" />
        </mxCell>
        <mxCell id="W9ihRem-RopsjmL4uKQ5-96" value="N" style="text;html=1;align=center;verticalAlign=middle;resizable=0;points=[];autosize=1;strokeColor=none;fillColor=none;fontFamily=Helvetica;fontSize=11;fontColor=default;labelBackgroundColor=default;" vertex="1" parent="1">
          <mxGeometry x="430" y="80" width="30" height="30" as="geometry" />
        </mxCell>
        <mxCell id="W9ihRem-RopsjmL4uKQ5-97" value="1" style="text;html=1;align=center;verticalAlign=middle;resizable=0;points=[];autosize=1;strokeColor=none;fillColor=none;fontFamily=Helvetica;fontSize=11;fontColor=default;labelBackgroundColor=default;" vertex="1" parent="1">
          <mxGeometry x="430" y="10" width="30" height="30" as="geometry" />
        </mxCell>
        <mxCell id="W9ihRem-RopsjmL4uKQ5-98" value="1" style="text;html=1;align=center;verticalAlign=middle;resizable=0;points=[];autosize=1;strokeColor=none;fillColor=none;fontFamily=Helvetica;fontSize=11;fontColor=default;labelBackgroundColor=default;" vertex="1" parent="1">
          <mxGeometry x="100" y="-80" width="30" height="30" as="geometry" />
        </mxCell>
        <mxCell id="W9ihRem-RopsjmL4uKQ5-99" value="N" style="text;html=1;align=center;verticalAlign=middle;resizable=0;points=[];autosize=1;strokeColor=none;fillColor=none;fontFamily=Helvetica;fontSize=11;fontColor=default;labelBackgroundColor=default;" vertex="1" parent="1">
          <mxGeometry x="185" y="-162" width="30" height="30" as="geometry" />
        </mxCell>
        <mxCell id="W9ihRem-RopsjmL4uKQ5-100" value="1" style="text;html=1;align=center;verticalAlign=middle;resizable=0;points=[];autosize=1;strokeColor=none;fillColor=none;fontFamily=Helvetica;fontSize=11;fontColor=default;labelBackgroundColor=default;" vertex="1" parent="1">
          <mxGeometry x="480" y="380" width="30" height="30" as="geometry" />
        </mxCell>
        <mxCell id="W9ihRem-RopsjmL4uKQ5-101" value="1" style="text;html=1;align=center;verticalAlign=middle;resizable=0;points=[];autosize=1;strokeColor=none;fillColor=none;fontFamily=Helvetica;fontSize=11;fontColor=default;labelBackgroundColor=default;" vertex="1" parent="1">
          <mxGeometry x="545" y="470" width="30" height="30" as="geometry" />
        </mxCell>
        <mxCell id="W9ihRem-RopsjmL4uKQ5-102" value="N" style="text;html=1;align=center;verticalAlign=middle;resizable=0;points=[];autosize=1;strokeColor=none;fillColor=none;fontFamily=Helvetica;fontSize=11;fontColor=default;labelBackgroundColor=default;" vertex="1" parent="1">
          <mxGeometry x="585" y="358" width="30" height="30" as="geometry" />
        </mxCell>
        <mxCell id="W9ihRem-RopsjmL4uKQ5-103" value="N" style="text;html=1;align=center;verticalAlign=middle;resizable=0;points=[];autosize=1;strokeColor=none;fillColor=none;fontFamily=Helvetica;fontSize=11;fontColor=default;labelBackgroundColor=default;" vertex="1" parent="1">
          <mxGeometry x="675" y="408" width="30" height="30" as="geometry" />
        </mxCell>
        <mxCell id="W9ihRem-RopsjmL4uKQ5-104" value="N" style="text;html=1;align=center;verticalAlign=middle;resizable=0;points=[];autosize=1;strokeColor=none;fillColor=none;fontFamily=Helvetica;fontSize=11;fontColor=default;labelBackgroundColor=default;" vertex="1" parent="1">
          <mxGeometry x="355" y="425" width="30" height="30" as="geometry" />
        </mxCell>
        <mxCell id="W9ihRem-RopsjmL4uKQ5-105" value="N" style="text;html=1;align=center;verticalAlign=middle;resizable=0;points=[];autosize=1;strokeColor=none;fillColor=none;fontFamily=Helvetica;fontSize=11;fontColor=default;labelBackgroundColor=default;" vertex="1" parent="1">
          <mxGeometry x="355" y="518" width="30" height="30" as="geometry" />
        </mxCell>
        <mxCell id="W9ihRem-RopsjmL4uKQ5-106" value="1" style="text;html=1;align=center;verticalAlign=middle;resizable=0;points=[];autosize=1;strokeColor=none;fillColor=none;fontFamily=Helvetica;fontSize=11;fontColor=default;labelBackgroundColor=default;" vertex="1" parent="1">
          <mxGeometry x="170" y="470" width="30" height="30" as="geometry" />
        </mxCell>
        <mxCell id="W9ihRem-RopsjmL4uKQ5-107" value="N" style="text;html=1;align=center;verticalAlign=middle;resizable=0;points=[];autosize=1;strokeColor=none;fillColor=none;fontFamily=Helvetica;fontSize=11;fontColor=default;labelBackgroundColor=default;" vertex="1" parent="1">
          <mxGeometry x="75" y="518" width="30" height="30" as="geometry" />
        </mxCell>
        <mxCell id="W9ihRem-RopsjmL4uKQ5-108" value="1" style="text;html=1;align=center;verticalAlign=middle;resizable=0;points=[];autosize=1;strokeColor=none;fillColor=none;fontFamily=Helvetica;fontSize=11;fontColor=default;labelBackgroundColor=default;" vertex="1" parent="1">
          <mxGeometry x="530" y="-132" width="30" height="30" as="geometry" />
        </mxCell>
        <mxCell id="W9ihRem-RopsjmL4uKQ5-109" value="1" style="text;html=1;align=center;verticalAlign=middle;resizable=0;points=[];autosize=1;strokeColor=none;fillColor=none;fontFamily=Helvetica;fontSize=11;fontColor=default;labelBackgroundColor=default;" vertex="1" parent="1">
          <mxGeometry x="625" y="-120" width="30" height="30" as="geometry" />
        </mxCell>
        <mxCell id="W9ihRem-RopsjmL4uKQ5-110" value="1" style="text;html=1;align=center;verticalAlign=middle;resizable=0;points=[];autosize=1;strokeColor=none;fillColor=none;fontFamily=Helvetica;fontSize=11;fontColor=default;labelBackgroundColor=default;" vertex="1" parent="1">
          <mxGeometry x="495" y="138" width="30" height="30" as="geometry" />
        </mxCell>
        <mxCell id="W9ihRem-RopsjmL4uKQ5-111" value="1" style="text;html=1;align=center;verticalAlign=middle;resizable=0;points=[];autosize=1;strokeColor=none;fillColor=none;fontFamily=Helvetica;fontSize=11;fontColor=default;labelBackgroundColor=default;" vertex="1" parent="1">
          <mxGeometry x="575" y="58" width="30" height="30" as="geometry" />
        </mxCell>
        <mxCell id="W9ihRem-RopsjmL4uKQ5-112" value="N" style="text;html=1;align=center;verticalAlign=middle;resizable=0;points=[];autosize=1;strokeColor=none;fillColor=none;fontFamily=Helvetica;fontSize=11;fontColor=default;labelBackgroundColor=default;" vertex="1" parent="1">
          <mxGeometry x="165" y="818" width="30" height="30" as="geometry" />
        </mxCell>
        <mxCell id="W9ihRem-RopsjmL4uKQ5-113" value="N" style="text;html=1;align=center;verticalAlign=middle;resizable=0;points=[];autosize=1;strokeColor=none;fillColor=none;fontFamily=Helvetica;fontSize=11;fontColor=default;labelBackgroundColor=default;" vertex="1" parent="1">
          <mxGeometry x="25" y="758" width="30" height="30" as="geometry" />
        </mxCell>
        <mxCell id="W9ihRem-RopsjmL4uKQ5-114" value="N" style="text;html=1;align=center;verticalAlign=middle;resizable=0;points=[];autosize=1;strokeColor=none;fillColor=none;fontFamily=Helvetica;fontSize=11;fontColor=default;labelBackgroundColor=default;" vertex="1" parent="1">
          <mxGeometry x="395" y="688" width="30" height="30" as="geometry" />
        </mxCell>
        <mxCell id="W9ihRem-RopsjmL4uKQ5-115" value="N" style="text;html=1;align=center;verticalAlign=middle;resizable=0;points=[];autosize=1;strokeColor=none;fillColor=none;fontFamily=Helvetica;fontSize=11;fontColor=default;labelBackgroundColor=default;" vertex="1" parent="1">
          <mxGeometry x="465" y="728" width="30" height="30" as="geometry" />
        </mxCell>
        <mxCell id="W9ihRem-RopsjmL4uKQ5-116" value="N" style="text;html=1;align=center;verticalAlign=middle;resizable=0;points=[];autosize=1;strokeColor=none;fillColor=none;fontFamily=Helvetica;fontSize=11;fontColor=default;labelBackgroundColor=default;" vertex="1" parent="1">
          <mxGeometry x="805" y="578" width="30" height="30" as="geometry" />
        </mxCell>
        <mxCell id="W9ihRem-RopsjmL4uKQ5-117" value="N" style="text;html=1;align=center;verticalAlign=middle;resizable=0;points=[];autosize=1;strokeColor=none;fillColor=none;fontFamily=Helvetica;fontSize=11;fontColor=default;labelBackgroundColor=default;" vertex="1" parent="1">
          <mxGeometry x="795" y="648" width="30" height="30" as="geometry" />
        </mxCell>
        <mxCell id="W9ihRem-RopsjmL4uKQ5-118" value="N" style="text;html=1;align=center;verticalAlign=middle;resizable=0;points=[];autosize=1;strokeColor=none;fillColor=none;fontFamily=Helvetica;fontSize=11;fontColor=default;labelBackgroundColor=default;" vertex="1" parent="1">
          <mxGeometry x="1035" y="628" width="30" height="30" as="geometry" />
        </mxCell>
        <mxCell id="W9ihRem-RopsjmL4uKQ5-119" value="N" style="text;html=1;align=center;verticalAlign=middle;resizable=0;points=[];autosize=1;strokeColor=none;fillColor=none;fontFamily=Helvetica;fontSize=11;fontColor=default;labelBackgroundColor=default;" vertex="1" parent="1">
          <mxGeometry x="990" y="548" width="30" height="30" as="geometry" />
        </mxCell>
        <mxCell id="W9ihRem-RopsjmL4uKQ5-120" value="&lt;font style=&quot;font-size: 21px;&quot;&gt;&lt;u&gt;ReportID&lt;/u&gt;&lt;/font&gt;" style="ellipse;whiteSpace=wrap;html=1;fontSize=11;rounded=0;labelBackgroundColor=default;" vertex="1" parent="1">
          <mxGeometry x="705" y="965" width="165" height="85" as="geometry" />
        </mxCell>
        <mxCell id="W9ihRem-RopsjmL4uKQ5-121" value="&lt;font style=&quot;font-size: 20px;&quot;&gt;USERID&lt;/font&gt;" style="ellipse;whiteSpace=wrap;html=1;rounded=0;fontFamily=Helvetica;fontSize=11;fontColor=default;labelBackgroundColor=default;" vertex="1" parent="1">
          <mxGeometry x="563" y="980" width="137" height="90" as="geometry" />
        </mxCell>
        <mxCell id="W9ihRem-RopsjmL4uKQ5-122" value="&lt;font style=&quot;font-size: 17px;&quot;&gt;HabitID&lt;/font&gt;" style="ellipse;whiteSpace=wrap;html=1;fontSize=11;rounded=0;labelBackgroundColor=default;fontFamily=Helvetica;fontColor=default;" vertex="1" parent="1">
          <mxGeometry x="880" y="950" width="180" height="90" as="geometry" />
        </mxCell>
        <mxCell id="W9ihRem-RopsjmL4uKQ5-123" value="&lt;font style=&quot;font-size: 17px;&quot;&gt;TotalDays&lt;/font&gt;" style="ellipse;whiteSpace=wrap;html=1;rounded=0;fontFamily=Helvetica;fontSize=11;fontColor=default;labelBackgroundColor=default;" vertex="1" parent="1">
          <mxGeometry x="380" y="930" width="175" height="100" as="geometry" />
        </mxCell>
        <mxCell id="W9ihRem-RopsjmL4uKQ5-124" value="&lt;font style=&quot;font-size: 18px;&quot;&gt;Goals List&lt;/font&gt;" style="ellipse;whiteSpace=wrap;html=1;fontSize=11;rounded=0;labelBackgroundColor=default;fontFamily=Helvetica;fontColor=default;" vertex="1" parent="1">
          <mxGeometry x="1050" y="860" width="190" height="90" as="geometry" />
        </mxCell>
        <mxCell id="W9ihRem-RopsjmL4uKQ5-125" value="&lt;font style=&quot;font-size: 18px;&quot;&gt;Description&lt;/font&gt;" style="ellipse;whiteSpace=wrap;html=1;rounded=0;fontFamily=Helvetica;fontSize=11;fontColor=default;labelBackgroundColor=default;" vertex="1" parent="1">
          <mxGeometry x="1180" y="440" width="130" height="85" as="geometry" />
        </mxCell>
        <mxCell id="W9ihRem-RopsjmL4uKQ5-126" value="&lt;font style=&quot;font-size: 18px;&quot;&gt;Name&lt;/font&gt;" style="ellipse;whiteSpace=wrap;html=1;rounded=0;fontFamily=Helvetica;fontSize=11;fontColor=default;labelBackgroundColor=default;" vertex="1" parent="1">
          <mxGeometry x="1190" y="360" width="130" height="70" as="geometry" />
        </mxCell>
        <mxCell id="W9ihRem-RopsjmL4uKQ5-127" value="&lt;font style=&quot;font-size: 17px;&quot;&gt;Locked Status&lt;/font&gt;" style="ellipse;whiteSpace=wrap;html=1;rounded=0;fontFamily=Helvetica;fontSize=11;fontColor=default;labelBackgroundColor=default;" vertex="1" parent="1">
          <mxGeometry x="1200" y="548" width="145" height="82" as="geometry" />
        </mxCell>
        <mxCell id="W9ihRem-RopsjmL4uKQ5-128" value="&lt;font style=&quot;font-size: 19px;&quot;&gt;&lt;u&gt;HABITID&lt;/u&gt;&lt;/font&gt;" style="ellipse;whiteSpace=wrap;html=1;rounded=0;fontFamily=Helvetica;fontSize=11;fontColor=default;labelBackgroundColor=default;" vertex="1" parent="1">
          <mxGeometry x="770" y="360" width="150" height="65" as="geometry" />
        </mxCell>
        <mxCell id="W9ihRem-RopsjmL4uKQ5-129" value="&lt;font style=&quot;font-size: 18px;&quot;&gt;&lt;u&gt;USERID&lt;/u&gt;&lt;/font&gt;" style="ellipse;whiteSpace=wrap;html=1;rounded=0;fontFamily=Helvetica;fontSize=11;fontColor=default;labelBackgroundColor=default;" vertex="1" parent="1">
          <mxGeometry x="1130" y="278" width="120" height="72" as="geometry" />
        </mxCell>
        <mxCell id="W9ihRem-RopsjmL4uKQ5-130" value="&lt;font style=&quot;font-size: 17px;&quot;&gt;&lt;u&gt;GROUPID&lt;/u&gt;&lt;/font&gt;" style="ellipse;whiteSpace=wrap;html=1;rounded=0;fontFamily=Helvetica;fontSize=11;fontColor=default;labelBackgroundColor=default;" vertex="1" parent="1">
          <mxGeometry x="140" y="-340" width="130" height="80" as="geometry" />
        </mxCell>
        <mxCell id="W9ihRem-RopsjmL4uKQ5-131" value="&lt;font style=&quot;font-size: 16px;&quot;&gt;USERS&lt;/font&gt;" style="ellipse;whiteSpace=wrap;html=1;rounded=0;fontFamily=Helvetica;fontSize=11;fontColor=default;labelBackgroundColor=default;" vertex="1" parent="1">
          <mxGeometry x="290" y="-410" width="130" height="70" as="geometry" />
        </mxCell>
        <mxCell id="W9ihRem-RopsjmL4uKQ5-132" value="&lt;font style=&quot;font-size: 18px;&quot;&gt;CreatedBy&lt;/font&gt;" style="ellipse;whiteSpace=wrap;html=1;rounded=0;fontFamily=Helvetica;fontSize=11;fontColor=default;labelBackgroundColor=default;" vertex="1" parent="1">
          <mxGeometry x="410" y="-340" width="140" height="80" as="geometry" />
        </mxCell>
        <mxCell id="W9ihRem-RopsjmL4uKQ5-133" value="&lt;font style=&quot;font-size: 17px;&quot;&gt;CreatedDate&lt;/font&gt;" style="ellipse;whiteSpace=wrap;html=1;rounded=0;fontFamily=Helvetica;fontSize=11;fontColor=default;labelBackgroundColor=default;" vertex="1" parent="1">
          <mxGeometry x="560" y="-340" width="135" height="90" as="geometry" />
        </mxCell>
        <mxCell id="W9ihRem-RopsjmL4uKQ5-134" value="&lt;font style=&quot;font-size: 17px;&quot;&gt;&lt;u&gt;STREAKID&lt;/u&gt;&lt;/font&gt;" style="ellipse;whiteSpace=wrap;html=1;rounded=0;fontFamily=Helvetica;fontSize=11;fontColor=default;labelBackgroundColor=default;" vertex="1" parent="1">
          <mxGeometry x="790" y="-242" width="130" height="72" as="geometry" />
        </mxCell>
        <mxCell id="W9ihRem-RopsjmL4uKQ5-135" value="&lt;font style=&quot;font-size: 16px;&quot;&gt;CurrentStreak&lt;/font&gt;" style="ellipse;whiteSpace=wrap;html=1;rounded=0;fontFamily=Helvetica;fontSize=11;fontColor=default;labelBackgroundColor=default;" vertex="1" parent="1">
          <mxGeometry x="930" y="-190" width="140" height="70" as="geometry" />
        </mxCell>
        <mxCell id="W9ihRem-RopsjmL4uKQ5-136" value="&lt;font style=&quot;font-size: 17px;&quot;&gt;LongestStreak&lt;/font&gt;" style="ellipse;whiteSpace=wrap;html=1;rounded=0;fontFamily=Helvetica;fontSize=11;fontColor=default;labelBackgroundColor=default;" vertex="1" parent="1">
          <mxGeometry x="1050" y="-100" width="150" height="80" as="geometry" />
        </mxCell>
        <mxCell id="W9ihRem-RopsjmL4uKQ5-137" value="&lt;font style=&quot;font-size: 18px;&quot;&gt;&lt;u&gt;USERID&lt;/u&gt;&lt;/font&gt;" style="ellipse;whiteSpace=wrap;html=1;rounded=0;fontFamily=Helvetica;fontSize=11;fontColor=default;labelBackgroundColor=default;" vertex="1" parent="1">
          <mxGeometry x="925" y="-40" width="135" height="80" as="geometry" />
        </mxCell>
        <mxCell id="W9ihRem-RopsjmL4uKQ5-138" value="&lt;font style=&quot;font-size: 14px;&quot;&gt;&lt;u&gt;REWARDPENALTYID&lt;/u&gt;&lt;/font&gt;" style="ellipse;whiteSpace=wrap;html=1;rounded=0;fontFamily=Helvetica;fontSize=11;fontColor=default;labelBackgroundColor=default;" vertex="1" parent="1">
          <mxGeometry x="760" y="70" width="165" height="80" as="geometry" />
        </mxCell>
        <mxCell id="W9ihRem-RopsjmL4uKQ5-139" value="&lt;font style=&quot;font-size: 16px;&quot;&gt;&lt;u&gt;USERID&lt;/u&gt;&lt;/font&gt;" style="ellipse;whiteSpace=wrap;html=1;rounded=0;fontFamily=Helvetica;fontSize=11;fontColor=default;labelBackgroundColor=default;" vertex="1" parent="1">
          <mxGeometry x="960" y="70" width="140" height="80" as="geometry" />
        </mxCell>
        <mxCell id="W9ihRem-RopsjmL4uKQ5-140" value="&lt;font style=&quot;font-size: 17px;&quot;&gt;Type&lt;/font&gt;" style="ellipse;whiteSpace=wrap;html=1;rounded=0;fontFamily=Helvetica;fontSize=11;fontColor=default;labelBackgroundColor=default;" vertex="1" parent="1">
          <mxGeometry x="1121" y="80" width="160" height="90" as="geometry" />
        </mxCell>
        <mxCell id="W9ihRem-RopsjmL4uKQ5-141" value="&lt;font style=&quot;font-size: 18px;&quot;&gt;Description&lt;/font&gt;" style="ellipse;whiteSpace=wrap;html=1;rounded=0;fontFamily=Helvetica;fontSize=11;fontColor=default;labelBackgroundColor=default;" vertex="1" parent="1">
          <mxGeometry x="1290" y="160" width="150" height="100" as="geometry" />
        </mxCell>
        <mxCell id="W9ihRem-RopsjmL4uKQ5-142" value="&lt;font style=&quot;font-size: 16px;&quot;&gt;GOALID&lt;/font&gt;" style="ellipse;whiteSpace=wrap;html=1;rounded=0;fontFamily=Helvetica;fontSize=11;fontColor=default;labelBackgroundColor=default;" vertex="1" parent="1">
          <mxGeometry x="440" y="580" width="110" height="60" as="geometry" />
        </mxCell>
        <mxCell id="W9ihRem-RopsjmL4uKQ5-143" value="&lt;font style=&quot;font-size: 17px;&quot;&gt;Target&lt;/font&gt;" style="ellipse;whiteSpace=wrap;html=1;rounded=0;fontFamily=Helvetica;fontSize=11;fontColor=default;labelBackgroundColor=default;" vertex="1" parent="1">
          <mxGeometry x="525" y="663" width="105" height="67" as="geometry" />
        </mxCell>
        <mxCell id="W9ihRem-RopsjmL4uKQ5-144" value="&lt;font style=&quot;font-size: 16px;&quot;&gt;Status&lt;/font&gt;" style="ellipse;whiteSpace=wrap;html=1;rounded=0;fontFamily=Helvetica;fontSize=11;fontColor=default;labelBackgroundColor=default;" vertex="1" parent="1">
          <mxGeometry x="137.5" y="601" width="125" height="57" as="geometry" />
        </mxCell>
        <mxCell id="W9ihRem-RopsjmL4uKQ5-145" value="&lt;font style=&quot;font-size: 17px;&quot;&gt;USERID&lt;/font&gt;" style="ellipse;whiteSpace=wrap;html=1;rounded=0;fontFamily=Helvetica;fontSize=11;fontColor=default;labelBackgroundColor=default;" vertex="1" parent="1">
          <mxGeometry x="-390" y="610" width="140" height="80" as="geometry" />
        </mxCell>
        <mxCell id="W9ihRem-RopsjmL4uKQ5-146" value="&lt;font style=&quot;font-size: 17px;&quot;&gt;Name&lt;/font&gt;" style="ellipse;whiteSpace=wrap;html=1;fontSize=11;rounded=0;labelBackgroundColor=default;fontFamily=Helvetica;fontColor=default;" vertex="1" parent="1">
          <mxGeometry x="-320" y="710" width="130" height="70" as="geometry" />
        </mxCell>
        <mxCell id="W9ihRem-RopsjmL4uKQ5-147" value="&lt;font style=&quot;font-size: 18px;&quot;&gt;Status&lt;/font&gt;" style="ellipse;whiteSpace=wrap;html=1;fontSize=11;rounded=0;labelBackgroundColor=default;fontFamily=Helvetica;fontColor=default;" vertex="1" parent="1">
          <mxGeometry x="-155" y="760" width="115" height="80" as="geometry" />
        </mxCell>
        <mxCell id="W9ihRem-RopsjmL4uKQ5-148" value="&lt;font style=&quot;font-size: 17px;&quot;&gt;&lt;u&gt;HABITID&lt;/u&gt;&lt;/font&gt;" style="ellipse;whiteSpace=wrap;html=1;fontSize=11;rounded=0;labelBackgroundColor=default;fontFamily=Helvetica;fontColor=default;" vertex="1" parent="1">
          <mxGeometry x="-390" y="500" width="130" height="85" as="geometry" />
        </mxCell>
        <mxCell id="W9ihRem-RopsjmL4uKQ5-149" value="&lt;u&gt;&lt;font style=&quot;font-size: 17px;&quot;&gt;USERID&lt;/font&gt;&lt;/u&gt;" style="ellipse;whiteSpace=wrap;html=1;rounded=0;fontFamily=Helvetica;fontSize=11;fontColor=default;labelBackgroundColor=default;" vertex="1" parent="1">
          <mxGeometry x="-500" y="35.5" width="130" height="75" as="geometry" />
        </mxCell>
        <mxCell id="W9ihRem-RopsjmL4uKQ5-150" value="&lt;font style=&quot;font-size: 16px;&quot;&gt;EMAIL&lt;/font&gt;" style="ellipse;whiteSpace=wrap;html=1;rounded=0;fontFamily=Helvetica;fontSize=11;fontColor=default;labelBackgroundColor=default;" vertex="1" parent="1">
          <mxGeometry x="-680" y="61" width="115" height="68" as="geometry" />
        </mxCell>
        <mxCell id="W9ihRem-RopsjmL4uKQ5-151" value="&lt;font style=&quot;font-size: 15px;&quot;&gt;PASSHASH&lt;/font&gt;" style="ellipse;whiteSpace=wrap;html=1;rounded=0;fontFamily=Helvetica;fontSize=11;fontColor=default;labelBackgroundColor=default;" vertex="1" parent="1">
          <mxGeometry x="-650" y="147" width="122" height="73" as="geometry" />
        </mxCell>
        <mxCell id="W9ihRem-RopsjmL4uKQ5-152" value="&lt;font style=&quot;font-size: 15px;&quot;&gt;JOIN DATE&lt;/font&gt;" style="ellipse;whiteSpace=wrap;html=1;rounded=0;fontFamily=Helvetica;fontSize=11;fontColor=default;labelBackgroundColor=default;" vertex="1" parent="1">
          <mxGeometry x="-650" y="220" width="130" height="80" as="geometry" />
        </mxCell>
        <mxCell id="W9ihRem-RopsjmL4uKQ5-153" value="&lt;font style=&quot;font-size: 21px;&quot;&gt;Age&lt;/font&gt;" style="ellipse;whiteSpace=wrap;html=1;rounded=0;fontFamily=Helvetica;fontSize=11;fontColor=default;labelBackgroundColor=default;" vertex="1" parent="1">
          <mxGeometry x="-480" y="260" width="130" height="75" as="geometry" />
        </mxCell>
        <mxCell id="W9ihRem-RopsjmL4uKQ5-154" value="&lt;font style=&quot;font-size: 17px;&quot;&gt;Name&lt;/font&gt;" style="ellipse;whiteSpace=wrap;html=1;rounded=0;fontFamily=Helvetica;fontSize=11;fontColor=default;labelBackgroundColor=default;" vertex="1" parent="1">
          <mxGeometry x="-350" y="61" width="135" height="70" as="geometry" />
        </mxCell>
        <mxCell id="W9ihRem-RopsjmL4uKQ5-155" value="&lt;font style=&quot;font-size: 17px;&quot;&gt;&lt;u&gt;ADMINID&lt;/u&gt;&lt;/font&gt;" style="ellipse;whiteSpace=wrap;html=1;rounded=0;fontFamily=Helvetica;fontSize=11;fontColor=default;labelBackgroundColor=default;" vertex="1" parent="1">
          <mxGeometry x="90" y="-460" width="135" height="80" as="geometry" />
        </mxCell>
        <mxCell id="W9ihRem-RopsjmL4uKQ5-156" value="&lt;font style=&quot;font-size: 20px;&quot;&gt;Name&lt;/font&gt;" style="ellipse;whiteSpace=wrap;html=1;rounded=0;fontFamily=Helvetica;fontSize=11;fontColor=default;labelBackgroundColor=default;" vertex="1" parent="1">
          <mxGeometry x="-250" y="-480" width="140" height="80" as="geometry" />
        </mxCell>
        <mxCell id="W9ihRem-RopsjmL4uKQ5-157" value="&lt;font style=&quot;font-size: 19px;&quot;&gt;PASSHASH&lt;/font&gt;" style="ellipse;whiteSpace=wrap;html=1;rounded=0;fontFamily=Helvetica;fontSize=11;fontColor=default;labelBackgroundColor=default;" vertex="1" parent="1">
          <mxGeometry x="-280" y="-390" width="140" height="90" as="geometry" />
        </mxCell>
        <mxCell id="W9ihRem-RopsjmL4uKQ5-158" value="&lt;font style=&quot;font-size: 18px;&quot;&gt;ROLE&lt;/font&gt;" style="ellipse;whiteSpace=wrap;html=1;rounded=0;fontFamily=Helvetica;fontSize=11;fontColor=default;labelBackgroundColor=default;" vertex="1" parent="1">
          <mxGeometry x="15.029999999999973" y="-550" width="114.97" height="70" as="geometry" />
        </mxCell>
        <mxCell id="W9ihRem-RopsjmL4uKQ5-159" value="&lt;font style=&quot;font-size: 19px;&quot;&gt;EMAIL&lt;/font&gt;" style="ellipse;whiteSpace=wrap;html=1;rounded=0;fontFamily=Helvetica;fontSize=11;fontColor=default;labelBackgroundColor=default;" vertex="1" parent="1">
          <mxGeometry x="-120" y="-550" width="110" height="80" as="geometry" />
        </mxCell>
        <mxCell id="W9ihRem-RopsjmL4uKQ5-161" style="edgeStyle=orthogonalEdgeStyle;rounded=0;orthogonalLoop=1;jettySize=auto;html=1;exitX=0.5;exitY=1;exitDx=0;exitDy=0;" edge="1" parent="1" source="W9ihRem-RopsjmL4uKQ5-20" target="W9ihRem-RopsjmL4uKQ5-20">
          <mxGeometry relative="1" as="geometry" />
        </mxCell>
      </root>
    </mxGraphModel>
  </diagram>
</mxfile>
